#!OML:ASF H:\ManfredETheater\Project 1\Capture day 1\Session 1\subject.ASF
:FULLY-SPECIFIED
:DEGREES
274
root 1.73689 18.0216 -27.2064 -177.568 -3.78546 -178.293
lowerback 5.05408 -0.355726 0.996311
upperback -4.09149 -0.401999 1.82565
thorax -7.10614 -0.249327 1.40324
lowerneck -19.829 -3.95335 -4.7708
upperneck 19.2916 -4.81488 2.49053
head 9.54836 -2.38747 0.96232
rclavicle 1.2424e-014 1.94809e-014
rhumerus -41.1772 -12.1966 -78.8744
rradius 32.1022
rwrist 5.77619
rhand -20.2822 -9.51271
rfingers 7.12502
rthumb 6.06738 -39.4058
lclavicle 1.2424e-014 1.94809e-014
lhumerus -35.3415 13.5599 79.6513
lradius 36.0128
lwrist -10.3508
lhand -12.7112 6.44933
lfingers 7.12502
lthumb 13.3716 36.0002
rfemur -10.6461 -1.96917 21.9228
rtibia 29.0373
rfoot -14.0087 -12.1309
rtoes -24.5139
lfemur -17.6929 -6.60531 -17.5597
ltibia 38.3677
lfoot -20.3898 -3.50555
ltoes 12.4774
275
root 1.74104 18.0251 -27.2275 -177.47 -3.41268 -178.095
lowerback 4.92145 -0.2749 1.21075
upperback -4.15023 -0.283324 1.90395
thorax -7.09474 -0.204004 1.35162
lowerneck -19.8519 -3.87222 -4.69401
upperneck 19.4544 -4.71834 2.40766
head 9.60171 -2.34998 0.933233
rclavicle -1.87852e-014 6.75868e-015
rhumerus -40.9293 -12.1558 -78.7939
rradius 31.675
rwrist 6.03884
rhand -20.106 -9.53108
rfingers 7.12502
rthumb 6.23749 -39.4192
lclavicle -1.87852e-014 6.75868e-015
lhumerus -35.4485 14.0791 79.5309
lradius 35.8207
lwrist -10.3844
lhand -12.9528 6.61882
lfingers 7.12502
lthumb 13.1387 36.1849
rfemur -10.6068 -1.8882 22.1279
rtibia 28.7879
rfoot -13.9906 -11.7877
rtoes -24.5446
lfemur -17.6898 -6.60352 -17.3445
ltibia 38.4141
lfoot -20.4645 -3.08329
ltoes 12.4433
276
root 1.74659 18.0277 -27.2487 -177.354 -3.07144 -177.967
lowerback 4.7806 -0.205948 1.32965
upperback -4.20629 -0.188943 1.96679
thorax -7.07455 -0.165806 1.34018
lowerneck -19.8848 -3.79148 -4.60364
upperneck 19.6118 -4.62478 2.32303
head 9.65492 -2.31286 0.900765
rclavicle -1.73937e-016 3.65764e-014
rhumerus -40.6679 -12.1191 -78.7128
rradius 31.2781
rwrist 6.32231
rhand -19.9069 -9.57013
rfingers 7.12502
rthumb 6.42972 -39.4525
lclavicle -1.73937e-016 3.65764e-014
lhumerus -35.5662 14.5489 79.4286
lradius 35.6398
lwrist -10.3771
lhand -13.1699 6.81528
lfingers 7.12502
lthumb 12.9294 36.3947
rfemur -10.5999 -1.82393 22.2645
rtibia 28.5894
rfoot -14.0023 -11.4825
rtoes -24.5961
lfemur -17.6941 -6.58816 -17.1996
ltibia 38.4382
lfoot -20.5385 -2.70417
ltoes 12.3839
277
root 1.75365 18.0297 -27.2695 -177.23 -2.76547 -177.913
lowerback 4.6428 -0.150237 1.35186
upperback -4.25972 -0.119805 2.01173
thorax -7.05257 -0.134964 1.36713
lowerneck -19.9246 -3.71154 -4.50341
upperneck 19.7637 -4.53529 2.24233
head 9.70773 -2.27627 0.867385
rclavicle 3.23025e-015 9.14409e-015
rhumerus -40.3993 -12.0883 -78.635
rradius 30.9201
rwrist 6.61065
rhand -19.7003 -9.60934
rfingers 7.12502
rthumb 6.62913 -39.4856
lclavicle 3.23025e-015 9.14409e-015
lhumerus -35.6947 14.942 79.3527
lradius 35.4797
lwrist -10.3148
lhand -13.3546 7.04251
lfingers 7.12502
lthumb 12.7514 36.6331
rfemur -10.62 -1.7555 22.3321
rtibia 28.4445
rfoot -14.0398 -11.2392
rtoes -24.6433
lfemur -17.6982 -6.56347 -17.1271
ltibia 38.4351
lfoot -20.6071 -2.37209
ltoes 12.3087
278
root 1.76212 18.0312 -27.2902 -177.109 -2.49815 -177.93
lowerback 4.51977 -0.109807 1.28306
upperback -4.30672 -0.0771087 2.03707
thorax -7.03179 -0.112137 1.42753
lowerneck -19.977 -3.63217 -4.39205
upperneck 19.9118 -4.44944 2.16482
head 9.76172 -2.23984 0.832614
rclavicle 5.46658e-016 2.10712e-014
rhumerus -40.1292 -12.0599 -78.5681
rradius 30.6181
rwrist 6.88658
rhand -19.4919 -9.65823
rfingers 7.12502
rthumb 6.83034 -39.528
lclavicle 5.46658e-016 2.10712e-014
lhumerus -35.8311 15.2412 79.3076
lradius 35.3457
lwrist -10.1962
lhand -13.5008 7.28805
lfingers 7.12502
lthumb 12.6105 36.8874
rfemur -10.6541 -1.6788 22.3319
rtibia 28.3528
rfoot -14.0987 -11.0634
rtoes -24.6771
lfemur -17.6879 -6.53354 -17.1274
ltibia 38.4033
lfoot -20.6699 -2.09154
ltoes 12.2258
279
root 1.77176 18.0324 -27.3102 -176.999 -2.2676 -177.995
lowerback 4.42568 -0.0844339 1.15314
upperback -4.34834 -0.0575352 2.04848
thorax -7.02175 -0.0971637 1.51026
lowerneck -20.039 -3.55433 -4.27548
upperneck 20.0561 -4.36802 2.09457
head 9.81655 -2.20397 0.798765
rclavicle 6.73383e-015 -1.43125e-014
rhumerus -39.8613 -12.033 -78.5149
rradius 30.3782
rwrist 7.13585
rhand -19.2985 -9.70383
rfingers 7.12502
rthumb 7.01704 -39.5675
lclavicle 6.73383e-015 -1.43125e-014
lhumerus -35.9695 15.4436 79.2964
lradius 35.2287
lwrist -10.0305
lhand -13.6058 7.52888
lfingers 7.12502
lthumb 12.5092 37.1345
rfemur -10.6943 -1.58348 22.2908
rtibia 28.3078
rfoot -14.171 -10.9577
rtoes -24.6868
lfemur -17.6616 -6.49806 -17.1739
ltibia 38.3481
lfoot -20.7233 -1.86201
ltoes 12.1419
280
root 1.78212 18.033 -27.3299 -176.908 -2.07233 -178.1
lowerback 4.36174 -0.0741138 0.975786
upperback -4.37954 -0.0597668 2.04827
thorax -7.01771 -0.0899471 1.60976
lowerneck -20.1135 -3.47695 -4.15389
upperneck 20.1935 -4.2883 2.02849
head 9.87158 -2.16757 0.765198
rclavicle -2.78299e-015 -1.07344e-014
rhumerus -39.5903 -12.0001 -78.479
rradius 30.1991
rwrist 7.3436
rhand -19.1287 -9.75701
rfingers 7.12502
rthumb 7.18095 -39.6152
lclavicle -2.78299e-015 -1.07344e-014
lhumerus -36.1019 15.5456 79.3243
lradius 35.1263
lwrist -9.83325
lhand -13.6638 7.76018
lfingers 7.12502
lthumb 12.4532 37.3692
rfemur -10.7255 -1.47371 22.2143
rtibia 28.2992
rfoot -14.2538 -10.9098
rtoes -24.667
lfemur -17.6123 -6.4582 -17.2608
ltibia 38.2772
lfoot -20.7698 -1.68175
ltoes 12.0702
281
root 1.79296 18.0332 -27.3488 -176.835 -1.90488 -178.212
lowerback 4.32994 -0.0757467 0.787163
upperback -4.40172 -0.0771432 2.04416
thorax -7.02239 -0.089124 1.7132
lowerneck -20.1933 -3.40039 -4.0307
upperneck 20.3193 -4.21014 1.96759
head 9.92382 -2.13074 0.73299
rclavicle -3.55328e-015 -6.36111e-015
rhumerus -39.3233 -11.9615 -78.4607
rradius 30.0865
rwrist 7.50518
rhand -18.9901 -9.81941
rfingers 7.12502
rthumb 7.31466 -39.673
lclavicle -3.55328e-015 -6.36111e-015
lhumerus -36.2237 15.5448 79.3916
lradius 35.0295
lwrist -9.61522
lhand -13.6798 7.95439
lfingers 7.12502
lthumb 12.4378 37.5643
rfemur -10.7458 -1.33777 22.1359
rtibia 28.3136
rfoot -14.335 -10.9167
rtoes -24.6291
lfemur -17.5491 -6.41327 -17.3538
ltibia 38.2025
lfoot -20.811 -1.54162
ltoes 12.0018
282
root 1.80384 18.0329 -27.3671 -176.779 -1.76387 -178.314
lowerback 4.32623 -0.0888595 0.61011
upperback -4.41704 -0.107781 2.04163
thorax -7.03567 -0.0950269 1.81335
lowerneck -20.277 -3.32379 -3.90946
upperneck 20.4345 -4.13162 1.91241
head 9.97342 -2.09285 0.703215
rclavicle 3.72721e-015 -2.22639e-014
rhumerus -39.0615 -11.913 -78.4595
rradius 30.0365
rwrist 7.61273
rhand -18.8951 -9.88766
rfingers 7.12502
rthumb 7.40636 -39.738
lclavicle 3.72721e-015 -2.22639e-014
lhumerus -36.3366 15.4525 79.4949
lradius 34.9322
lwrist -9.40679
lhand -13.6483 8.10308
lfingers 7.12502
lthumb 12.4682 37.7112
rfemur -10.7528 -1.18186 22.0733
rtibia 28.3383
rfoot -14.4085 -10.9653
rtoes -24.5753
lfemur -17.4797 -6.36286 -17.4343
ltibia 38.1345
lfoot -20.8495 -1.43736
ltoes 11.9489
